<?xml version="1.0" encoding="utf-8"?>
<!-- Generator: Adobe Illustrator 19.2.1, SVG Export Plug-In . SVG Version: 6.00 Build 0)  -->
<svg version="1.1" xmlns="http://www.w3.org/2000/svg" xmlns:xlink="http://www.w3.org/1999/xlink" x="0px" y="0px"
	 viewBox="0 0 512 512" style="enable-background:new 0 0 512 512;" xml:space="preserve">
<style type="text/css">
	.st0{display:none;}
	.st1{fill:#75A897;}
	.st2{fill:#D5872A;}
	.st3{fill:#5082A9;}
	.st4{fill:#E09C6F;}
	.st5{fill:#E4C856;}
	.st6{fill:#87B7DD;}
	.st7{fill:#B9BDC2;}
	.st8{fill:#57646E;}
	.st9{fill:#CA6A46;}
	.st10{fill:#1F3049;}
	.st11{fill:#298063;}
	.st12{fill:#C93A3A;}
	.st13{fill:#DA8B80;}
	.st14{fill:#C9402E;}
	.st15{fill:#E29E6F;}
	.st16{fill:#A32929;}
	.st17{fill:#F5F5F5;}
	.st18{fill:#C9553E;}
	.st19{fill:#E09E9A;}
	.st20{fill:#FFFFFF;}
	.st21{fill:#E6A585;}
	.st22{fill:#4E3333;}
	.st23{fill:#2B5F87;}
	.st24{opacity:0.31;fill:#FFFFFF;}
	.st25{fill:#E6CA56;}
	.st26{fill:#4D917B;}
	.st27{fill:#B8B8B8;}
	.st28{fill:#8998A0;}
	.st29{fill:#394755;}
	.st30{fill:#F2D1B4;}
	.st31{fill:#ECE4C7;}
	.st32{fill:#F1CB58;}
	.st33{fill:#E1E1E1;}
</style>
<g id="GUIDELINES" class="st0">
</g>
<g id="Layer_9">
</g>
<g id="ICON">
	<ellipse class="st7" cx="256.4" cy="255.9" rx="256" ry="256"/>
</g>
<g id="Layer_8">
	<g>
		<g>
			<g>
				<g>
					<rect x="97" y="183.3" class="st14" width="17.6" height="115.7"/>
					<g>
						<rect x="114.9" y="183.3" class="st2" width="62.2" height="115.7"/>
					</g>
					<g>
						<g>
							<rect x="161" y="189.6" class="st10" width="12" height="18.7"/>
							<rect x="163.2" y="191.8" class="st6" width="7.7" height="14.4"/>
							<rect x="161.8" y="198.1" class="st10" width="10.4" height="1.7"/>
						</g>
						<g>
							<rect x="139.9" y="189.6" class="st10" width="12" height="18.7"/>
							<rect x="142.1" y="191.8" class="st5" width="7.7" height="14.4"/>
							<rect x="140.8" y="198.1" class="st10" width="10.4" height="1.7"/>
						</g>
						<g>
							<rect x="118.9" y="189.6" class="st10" width="12" height="18.7"/>
							<rect x="121.1" y="191.8" class="st20" width="7.7" height="14.4"/>
							<rect x="119.7" y="198.1" class="st10" width="10.4" height="1.7"/>
						</g>
					</g>
					<g>
						<g>
							<rect x="161" y="217.5" class="st10" width="12" height="18.7"/>
							<rect x="163.2" y="219.7" class="st6" width="7.7" height="14.4"/>
							<rect x="161.8" y="226" class="st10" width="10.4" height="1.7"/>
						</g>
						<g>
							<rect x="139.9" y="217.5" class="st10" width="12" height="18.7"/>
							<rect x="142.1" y="219.7" class="st3" width="7.7" height="14.4"/>
							<rect x="140.8" y="226" class="st10" width="10.4" height="1.7"/>
						</g>
						<g>
							<rect x="118.9" y="217.5" class="st10" width="12" height="18.7"/>
							<rect x="121.1" y="219.7" class="st6" width="7.7" height="14.4"/>
							<rect x="119.7" y="226" class="st10" width="10.4" height="1.7"/>
						</g>
					</g>
					<rect x="94" y="180" class="st10" width="87.1" height="5.6"/>
					<g>
						<rect x="135.8" y="272.6" class="st10" width="20.4" height="26.4"/>
						<g>
							<rect x="146.9" y="274.6" class="st3" width="8.1" height="24.4"/>
							<rect x="137" y="274.6" class="st3" width="8.1" height="24.4"/>
						</g>
					</g>
					<g>
						<g>
							<rect x="161" y="245.4" class="st10" width="12" height="18.7"/>
							<rect x="163.2" y="247.6" class="st6" width="7.7" height="14.4"/>
							<rect x="161.8" y="253.9" class="st10" width="10.4" height="1.7"/>
						</g>
						<g>
							<rect x="139.9" y="245.4" class="st10" width="12" height="18.7"/>
							<rect x="142.1" y="247.6" class="st14" width="7.7" height="14.4"/>
							<rect x="140.8" y="253.9" class="st10" width="10.4" height="1.7"/>
						</g>
						<g>
							<rect x="118.9" y="245.4" class="st10" width="12" height="18.7"/>
							<rect x="121.1" y="247.6" class="st20" width="7.7" height="14.4"/>
							<rect x="119.7" y="253.9" class="st10" width="10.4" height="1.7"/>
						</g>
					</g>
					<g>
						<g>
							<rect x="161" y="273.3" class="st10" width="12" height="18.7"/>
							<rect x="163.2" y="275.5" class="st6" width="7.7" height="14.4"/>
							<rect x="161.8" y="281.8" class="st10" width="10.4" height="1.7"/>
						</g>
						<g>
							<rect x="118.9" y="273.3" class="st10" width="12" height="18.7"/>
							<rect x="121.1" y="275.5" class="st2" width="7.7" height="14.4"/>
							<rect x="119.7" y="281.8" class="st10" width="10.4" height="1.7"/>
						</g>
					</g>
				</g>
			</g>
			<rect x="94.2" y="307.6" class="st11" width="86.6" height="76.4"/>
		</g>
		<g>
			<rect x="196.2" y="270.6" class="st14" width="86.6" height="113.4"/>
			<g>
				<g>
					<g>
						<g>
							<rect x="243.9" y="220.5" class="st10" width="41.2" height="41.7"/>
							<polygon class="st2" points="290.4,221.9 264.4,190 221.5,190 247.4,221.9 							"/>
							<rect x="247" y="225.6" class="st23" width="38.1" height="36.5"/>
							<polygon class="st10" points="221.6,192.8 198,220.5 198,262.1 245.2,262.1 245.2,220.5 							"/>
							<g>
								<path class="st9" d="M194.8,221.9h4.5l22.3-26.2l22.3,26.2h4.9L221.6,190l-27.3,32C194.5,222,194.6,221.9,194.8,221.9z"/>
							</g>
							<g>
								<rect x="262.6" y="248.5" class="st1" width="11.2" height="13.6"/>
								<g>
									<circle class="st5" cx="268.2" cy="236" r="7.6"/>
									<rect x="267.3" y="227.3" class="st23" width="1.8" height="17.4"/>
									<rect x="259.5" y="235.1" class="st23" width="17.4" height="1.8"/>
								</g>
							</g>
						</g>
					</g>
				</g>
				<rect x="194.1" y="261.1" class="st10" width="93.9" height="3.1"/>
			</g>
		</g>
		<g>
			<g>
				<g>
					<rect x="305" y="121.4" class="st2" width="18.2" height="103"/>
					<g>
						<rect x="322.5" y="121.4" class="st20" width="64.2" height="103"/>
					</g>
					<g>
						<g>
							<rect x="370.3" y="128" class="st10" width="12.4" height="19.4"/>
							<rect x="372.5" y="130.2" class="st6" width="7.9" height="14.9"/>
							<rect x="371.1" y="136.7" class="st10" width="10.7" height="1.8"/>
						</g>
						<g>
							<rect x="348.5" y="128" class="st10" width="12.4" height="19.4"/>
							<rect x="350.8" y="130.2" class="st5" width="7.9" height="14.9"/>
							<rect x="349.4" y="136.7" class="st10" width="10.7" height="1.8"/>
						</g>
						<g>
							<rect x="326.8" y="128" class="st10" width="12.4" height="19.4"/>
							<rect x="329" y="130.2" class="st3" width="7.9" height="14.9"/>
							<rect x="327.6" y="136.7" class="st10" width="10.7" height="1.8"/>
						</g>
					</g>
					<g>
						<g>
							<rect x="370.3" y="158.3" class="st10" width="12.4" height="19.4"/>
							<rect x="372.5" y="160.6" class="st6" width="7.9" height="14.9"/>
							<rect x="371.1" y="167.1" class="st10" width="10.7" height="1.8"/>
						</g>
						<g>
							<rect x="348.5" y="158.3" class="st10" width="12.4" height="19.4"/>
							<rect x="350.8" y="160.6" class="st3" width="7.9" height="14.9"/>
							<rect x="349.4" y="167.1" class="st10" width="10.7" height="1.8"/>
						</g>
						<g>
							<rect x="326.8" y="158.3" class="st10" width="12.4" height="19.4"/>
							<rect x="329" y="160.6" class="st2" width="7.9" height="14.9"/>
							<rect x="327.6" y="167.1" class="st10" width="10.7" height="1.8"/>
						</g>
					</g>
					<g>
						<g>
							<g>
								<rect x="370.3" y="188.7" class="st10" width="12.4" height="19.4"/>
								<rect x="372.5" y="190.9" class="st2" width="7.9" height="14.9"/>
								<rect x="371.1" y="197.5" class="st10" width="10.7" height="1.8"/>
							</g>
							<g>
								<rect x="326.8" y="188.7" class="st10" width="12.4" height="19.4"/>
								<rect x="329" y="190.9" class="st3" width="7.9" height="14.9"/>
								<rect x="327.6" y="197.5" class="st10" width="10.7" height="1.8"/>
							</g>
						</g>
					</g>
					<rect x="343.9" y="196.2" class="st12" width="21.1" height="28.2"/>
					<rect x="301.9" y="118" class="st10" width="90" height="5.7"/>
					<g>
						<rect x="355.3" y="198.2" class="st2" width="8.4" height="25.3"/>
						<rect x="345.1" y="198.2" class="st2" width="8.4" height="25.3"/>
					</g>
				</g>
			</g>
			<rect x="303.6" y="232.6" class="st3" width="86.6" height="151.4"/>
		</g>
	</g>
	<g>
		<g>
			<path class="st7" d="M96.9,360.1c-5.6-0.4-10.3-4.4-11.5-9.9c-1.5-6.8,2.8-13.6,9.6-15.1l323.1-72.4l-12.2-7.7
				c-4.8-3.1-6.8-8.5-5-13.9c1.8-5.5,6.9-9.2,12.5-8.8c2,0.1,4,0.8,5.8,1.9l37.7,23.9c5.7,3.6,7.4,11.2,3.8,17l-23.9,37.7
				c-2.4,3.8-6.5,5.9-10.9,5.6h0c-4.4-0.3-8.6-3-10.6-7c-1.9-3.8-1.7-8.1,0.7-11.8c2.6-4.1,5.2-8.1,7.7-12.2l-323.1,72.4
				C99.3,360.1,98.1,360.2,96.9,360.1z"/>
		</g>
		<path class="st10" d="M453.2,263.8c-12.6-8-25.1-15.9-37.7-23.9c-6.2-3.9-12.2,5.7-6.1,9.5c8.6,5.4,17.2,10.9,25.8,16.3
			L96.4,341.7c-3.2,0.7-5.3,3.9-4.5,7.2c0.7,3.2,3.9,5.3,7.2,4.5l338.8-75.9c-5.4,8.6-10.9,17.2-16.3,25.8c-3.9,6.2,5.7,12.2,9.5,6
			c8-12.6,15.9-25.1,23.9-37.7C456.6,268.9,455.8,265.4,453.2,263.8z"/>
	</g>
</g>
</svg>
