<?xml version="1.0" encoding="utf-8"?>
<!-- Generator: Adobe Illustrator 19.2.1, SVG Export Plug-In . SVG Version: 6.00 Build 0)  -->
<svg version="1.1" xmlns="http://www.w3.org/2000/svg" xmlns:xlink="http://www.w3.org/1999/xlink" x="0px" y="0px"
	 viewBox="0 0 512 512" style="enable-background:new 0 0 512 512;" xml:space="preserve">
<style type="text/css">
	.st0{display:none;}
	.st1{fill:#75A897;}
	.st2{fill:#D5872A;}
	.st3{fill:#5082A9;}
	.st4{fill:#E09C6F;}
	.st5{fill:#E4C856;}
	.st6{fill:#87B7DD;}
	.st7{fill:#B9BDC2;}
	.st8{fill:#57646E;}
	.st9{fill:#CA6A46;}
	.st10{fill:#1F3049;}
	.st11{fill:#298063;}
	.st12{fill:#C93A3A;}
	.st13{fill:#DA8B80;}
	.st14{fill:#C9402E;}
	.st15{fill:#E29E6F;}
	.st16{fill:#A32929;}
	.st17{fill:#F5F5F5;}
	.st18{fill:#C9553E;}
	.st19{fill:#E09E9A;}
	.st20{fill:#FFFFFF;}
	.st21{fill:#E6A585;}
	.st22{fill:#4E3333;}
	.st23{fill:#2B5F87;}
	.st24{opacity:0.31;fill:#FFFFFF;}
	.st25{fill:#E6CA56;}
	.st26{fill:#4D917B;}
	.st27{fill:#B8B8B8;}
	.st28{fill:#8998A0;}
	.st29{fill:#394755;}
	.st30{fill:#F2D1B4;}
	.st31{fill:#ECE4C7;}
	.st32{fill:#F1CB58;}
	.st33{fill:#E1E1E1;}
</style>
<g id="GUIDELINES" class="st0">
</g>
<g id="Layer_9">
</g>
<g id="ICON">
	<ellipse class="st12" cx="256.4" cy="254.7" rx="256" ry="256"/>
</g>
<g id="Layer_8">
	<g>
		<g>
			<g>
				<g>
					<g>
						<path class="st10" d="M399.2,345.2c0,3.4-2.7,6.1-6.1,6.1H125.2c-3.4,0-6.1-2.7-6.1-6.1V148.1c0-3.4,2.7-6.1,6.1-6.1h267.9
							c3.4,0,6.1,2.7,6.1,6.1V345.2z"/>
						<g>
							<rect x="132.8" y="155.5" class="st8" width="252.7" height="159.5"/>
						</g>
					</g>
				</g>
				<path class="st29" d="M425,350.8c0,5.6-4.5,10.2-10.2,10.2H103.4c-5.6,0-10.2-4.5-10.2-10.2v-10.2c0-5.6,4.5-10.2,10.2-10.2
					h311.4c5.6,0,10.2,4.5,10.2,10.2V350.8z"/>
			</g>
		</g>
		<g>
			<g>
				<rect x="275.6" y="221.8" class="st7" width="68.1" height="72.3"/>
				<polygon class="st4" points="353,224.4 307.3,168.3 236.1,168.3 281.8,224.4 				"/>
				<rect x="281" y="230.9" class="st20" width="62.7" height="63.2"/>
				<polygon class="st7" points="236.3,173.1 194.8,221.8 194.8,294.1 277.8,294.1 277.8,221.8 				"/>
				<rect x="227.5" y="263.1" class="st23" width="22" height="31.1"/>
				<g>
					<path class="st9" d="M189.2,224.4h7.9l39.3-46l39.3,46h8.6l-47.9-56.2l-48,56.3C188.6,224.5,188.9,224.4,189.2,224.4z"/>
				</g>
				<g>
					<circle class="st11" cx="238.6" cy="227.5" r="15.4"/>
					<rect x="236.8" y="209.9" class="st7" width="3.6" height="35.2"/>
					<rect x="221" y="225.7" class="st7" width="35.2" height="3.6"/>
				</g>
				<g>
					<rect x="227.5" y="243.8" class="st9" width="22.3" height="4.7"/>
				</g>
			</g>
		</g>
	</g>
</g>
</svg>
