<?xml version="1.0" encoding="utf-8"?>
<!-- Generator: Adobe Illustrator 19.2.1, SVG Export Plug-In . SVG Version: 6.00 Build 0)  -->
<svg version="1.1" xmlns="http://www.w3.org/2000/svg" xmlns:xlink="http://www.w3.org/1999/xlink" x="0px" y="0px"
	 viewBox="0 0 512 512" style="enable-background:new 0 0 512 512;" xml:space="preserve">
<style type="text/css">
	.st0{display:none;}
	.st1{fill:#75A897;}
	.st2{fill:#D5872A;}
	.st3{fill:#5082A9;}
	.st4{fill:#E09C6F;}
	.st5{fill:#E4C856;}
	.st6{fill:#87B7DD;}
	.st7{fill:#B9BDC2;}
	.st8{fill:#57646E;}
	.st9{fill:#CA6A46;}
	.st10{fill:#1F3049;}
	.st11{fill:#298063;}
	.st12{fill:#C93A3A;}
	.st13{fill:#DA8B80;}
	.st14{fill:#C9402E;}
	.st15{fill:#E29E6F;}
	.st16{fill:#A32929;}
	.st17{fill:#F5F5F5;}
	.st18{fill:#C9553E;}
	.st19{fill:#E09E9A;}
	.st20{fill:#FFFFFF;}
	.st21{fill:#E6A585;}
	.st22{fill:#4E3333;}
	.st23{fill:#2B5F87;}
	.st24{opacity:0.31;fill:#FFFFFF;}
	.st25{fill:#E6CA56;}
	.st26{fill:#4D917B;}
	.st27{fill:#B8B8B8;}
	.st28{fill:#8998A0;}
	.st29{fill:#394755;}
	.st30{fill:#F2D1B4;}
	.st31{fill:#ECE4C7;}
	.st32{fill:#F1CB58;}
	.st33{fill:#E1E1E1;}
</style>
<g id="GUIDELINES" class="st0">
</g>
<g id="Layer_9">
</g>
<g id="ICON">
	<ellipse class="st13" cx="256.4" cy="254.8" rx="256" ry="256"/>
</g>
<g id="Layer_8">
	<g>
		<g>
			<g>
				<rect x="105" y="310.6" class="st2" width="78.5" height="78.4"/>
				<polygon class="st1" points="95,313.4 144.6,252.5 226.5,252.5 176.9,313.4 				"/>
				<rect x="105" y="320.5" class="st5" width="72.7" height="68.5"/>
				<polygon class="st2" points="226.2,257.7 271.3,310.6 271.3,389 181.2,389 181.2,310.6 				"/>
				<rect x="211.9" y="355.3" class="st14" width="23.8" height="33.7"/>
				<g>
					<path class="st11" d="M277.3,313.4h-8.5l-42.6-50l-42.6,50h-9.4l51.9-60.9l52,61C278,313.5,277.7,313.4,277.3,313.4z"/>
				</g>
				<g>
					<circle class="st3" cx="223.7" cy="316.7" r="16.7"/>
					<rect x="221.7" y="297.6" class="st2" width="3.9" height="38.2"/>
					<rect x="204.6" y="314.8" class="st2" width="38.2" height="3.9"/>
				</g>
			</g>
		</g>
		<g>
			<polygon class="st14" points="329.7,119.2 346.1,141.3 346.1,389 313.2,389 313.2,141.3 			"/>
			<g>
				<path class="st20" d="M245,244.8c0,5,4.1,9.1,9.1,9.1h151.1c5,0,9.1-4.1,9.1-9.1V164c0-5-4.1-9.1-9.1-9.1H254.1
					c-5,0-9.1,4.1-9.1,9.1V244.8z"/>
				<g>
					<g>
						<path class="st10" d="M310.9,178.6h-12.8v5.8h11.2v4.3h-11.2v10.7h-4.7v-25.1h17.5V178.6z"/>
						<path class="st10" d="M326.7,173.9c1.8,0,3.4,0.3,4.8,0.9c1.5,0.6,2.8,1.5,3.8,2.6c1.1,1.1,1.9,2.5,2.5,4.1
							c0.6,1.6,0.9,3.4,0.9,5.3c0,1.9-0.3,3.7-0.9,5.3c-0.6,1.6-1.4,3-2.5,4.1c-1.1,1.1-2.3,2-3.8,2.7c-1.5,0.6-3.1,1-4.9,1
							c-1.8,0-3.4-0.3-4.9-0.9c-1.5-0.6-2.7-1.5-3.8-2.6c-1.1-1.1-1.9-2.5-2.5-4.1c-0.6-1.6-0.9-3.4-0.9-5.3c0-2,0.3-3.7,0.9-5.3
							c0.6-1.6,1.4-3,2.5-4.1c1.1-1.1,2.4-2,3.8-2.6C323.3,174.2,324.9,173.9,326.7,173.9z M326.6,195.7c1.1,0,2.1-0.2,3-0.6
							c0.9-0.4,1.7-1,2.3-1.7c0.6-0.8,1.1-1.7,1.5-2.8c0.4-1.1,0.5-2.3,0.5-3.7c0-1.4-0.2-2.6-0.5-3.7c-0.4-1.1-0.9-2-1.5-2.7
							c-0.6-0.7-1.4-1.3-2.3-1.7c-0.9-0.4-1.8-0.6-2.9-0.6c-1.1,0-2,0.2-2.9,0.6c-0.9,0.4-1.7,1-2.3,1.7c-0.7,0.8-1.2,1.7-1.5,2.8
							c-0.4,1.1-0.5,2.3-0.5,3.7c0,1.4,0.2,2.6,0.5,3.7c0.4,1.1,0.9,2,1.5,2.8c0.6,0.8,1.4,1.3,2.3,1.7
							C324.6,195.5,325.6,195.7,326.6,195.7z"/>
						<path class="st10" d="M365.3,199.4h-5l-2.4-6.8c-0.2-0.5-0.4-0.9-0.7-1.3c-0.3-0.4-0.6-0.7-1-1c-0.4-0.3-0.8-0.5-1.3-0.7
							c-0.5-0.2-1-0.2-1.5-0.2h-5v10.1h-4.7v-25.1h11.2c0.7,0,1.3,0,1.9,0c0.6,0,1.2,0.1,1.7,0.2c0.6,0.1,1.1,0.3,1.6,0.5
							c0.5,0.2,1,0.5,1.5,0.9c0.4,0.4,0.8,0.7,1.1,1.2c0.3,0.4,0.6,0.9,0.8,1.4c0.2,0.5,0.4,1,0.5,1.5c0.1,0.5,0.2,1,0.2,1.6
							c0,1.5-0.4,2.8-1.1,3.9c-0.7,1.1-1.8,1.9-3.1,2.5c1.1,0.8,1.9,2.1,2.6,3.9L365.3,199.4z M348.4,185h6.2c0.8,0,1.6-0.1,2.2-0.2
							c0.6-0.1,1.1-0.3,1.5-0.6c0.4-0.3,0.7-0.6,0.8-1c0.2-0.4,0.3-1,0.3-1.6c0-1.1-0.3-1.9-1-2.5c-0.7-0.5-1.8-0.8-3.2-0.8h-6.7
							V185z"/>
					</g>
					<g>
						<path class="st10" d="M304,234.8h-5l-2.4-6.8c-0.2-0.5-0.4-0.9-0.7-1.3c-0.3-0.4-0.6-0.7-1-1c-0.4-0.3-0.8-0.5-1.3-0.7
							c-0.5-0.2-1-0.2-1.5-0.2h-5v10.1h-4.7v-25.1h11.2c0.7,0,1.3,0,1.9,0c0.6,0,1.2,0.1,1.7,0.2c0.6,0.1,1.1,0.3,1.6,0.5
							c0.5,0.2,1,0.5,1.5,0.9c0.4,0.4,0.8,0.7,1.1,1.2c0.3,0.4,0.6,0.9,0.8,1.4c0.2,0.5,0.4,1,0.5,1.5c0.1,0.5,0.2,1,0.2,1.6
							c0,1.5-0.4,2.8-1.1,3.9c-0.7,1.1-1.8,1.9-3.1,2.5c1.1,0.8,1.9,2.1,2.6,3.9L304,234.8z M287.1,220.4h6.2c0.8,0,1.6-0.1,2.2-0.2
							c0.6-0.1,1.1-0.3,1.5-0.6c0.4-0.3,0.7-0.6,0.8-1c0.2-0.4,0.3-1,0.3-1.6c0-1.1-0.3-1.9-1-2.5c-0.7-0.5-1.8-0.8-3.2-0.8h-6.7
							V220.4z"/>
						<path class="st10" d="M327.6,234.8h-19.2v-25.1h18.6v4.3h-14v5.7h13.1v4.3h-13.1v6.5h14.5V234.8z"/>
						<path class="st10" d="M352.7,234.8h-4.4L337.1,218v16.8h-4.5v-25.1h4.4l11.1,16.8v-16.8h4.5V234.8z"/>
						<path class="st10" d="M377,214h-7.8v20.8h-4.7V214h-7.8v-4.3H377V214z"/>
					</g>
				</g>
			</g>
		</g>
	</g>
</g>
</svg>
